# xmcd CD database file
#
# Track frame offsets:
#	150
#	6152
#	30282
#	50903
#	69823
#	91116
#	112697
#	133492
#	164601
#	186864
#	208584
#	233680
#	253282
#	270712
#	297657
#	314005
#	332554
#	335644
#
# Disc length: 4774 seconds
#
# Revision: 0
# Processed by: cddbd v1.4PL0 Copyright (c) Steve Scherf et al.
# Submitted via: CdAid 2001.05.15.01
#
DISCID=0f12a412
DTITLE=The Roots - Mellow My Roots
DYEAR=1900
DGENRE=
TTITLE0=The Roots Is Comin'
TTITLE1=Shining Star f/ D'Angelo, Erykah Badu
TTITLE2=Good Music
TTITLE3=The Next Movement f/ DJ Jazzy Jeff, Jaz
TTITLE4=Mellow My Man
TTITLE5=Dynamite!
TTITLE6=Proceed
TTITLE7=Silent Treatment
TTITLE8=Act Too (The Love of My Life) f/ Common
TTITLE9=Complexity f/ Jill Scott
TTITLE10=Pass the Popcorn
TTITLE11="You Got Me" f/ Erykah Badu, Eve
TTITLE12=Swept Away
TTITLE13=What They Do f/ Raphael Saadiq
TTITLE14=Break You Off f/ Musiq
TTITLE15=What You Want f/ Jaguar Wright
TTITLE16=We Got You f/ Jaguar Wright
TTITLE17=Essaywhuman?!!!??!
EXTD=
EXTT0=
EXTT1=
EXTT2=
EXTT3=
EXTT4=
EXTT5=
EXTT6=
EXTT7=
EXTT8=
EXTT9=
EXTT10=
EXTT11=
EXTT12=
EXTT13=
EXTT14=
EXTT15=
EXTT16=
EXTT17=
PLAYORDER=
